HIERARCHY
ROOT mixamorig:Hips
{
	OFFSET -0.000419 0.014164 2.091508
	CHANNELS 6 Xposition Yposition Zposition Xrotation Yrotation Zrotation
	JOINT mixamorig:Spine
	{
		OFFSET -0.001948 0.038898 0.198048
		CHANNELS 6 Xposition Yposition Zposition Xrotation Yrotation Zrotation
		JOINT mixamorig:Spine1
		{
			OFFSET -0.002704 0.023603 0.235004
			CHANNELS 3 Xrotation Yrotation Zrotation
			JOINT mixamorig:Spine2
			{
				OFFSET -0.001091 0.011954 0.278074
				CHANNELS 3 Xrotation Yrotation Zrotation
				JOINT mixamorig:Neck
				{
					OFFSET 0.005730 -0.037617 0.310620
					CHANNELS 6 Xposition Yposition Zposition Xrotation Yrotation Zrotation
					JOINT mixamorig:Head
					{
						OFFSET 0.010419 -0.065134 0.222311
						CHANNELS 6 Xposition Yposition Zposition Xrotation Yrotation Zrotation
						End Site
						{
							OFFSET 0.010419 -0.065135 0.222311
						}
					}
				}
				JOINT mixamorig:LeftShoulder
				{
					OFFSET 0.129541 -0.026782 0.188949
					CHANNELS 6 Xposition Yposition Zposition Xrotation Yrotation Zrotation
					JOINT mixamorig:LeftArm
					{
						OFFSET 0.262609 0.040542 0.007741
						CHANNELS 3 Xrotation Yrotation Zrotation
						JOINT mixamorig:LeftForeArm
						{
							OFFSET 0.551278 0.000000 -0.000000
							CHANNELS 6 Xposition Yposition Zposition Xrotation Yrotation Zrotation
							JOINT mixamorig:LeftHand
							{
								OFFSET 0.527734 -0.000000 -0.000000
								CHANNELS 3 Xrotation Yrotation Zrotation
								End Site
								{
									OFFSET 0.527734 -0.000000 0.000000
								}
							}
						}
					}
				}
				JOINT mixamorig:RightShoulder
				{
					OFFSET -0.126373 -0.021809 0.192154
					CHANNELS 6 Xposition Yposition Zposition Xrotation Yrotation Zrotation
					JOINT mixamorig:RightArm
					{
						OFFSET -0.263355 0.054230 0.004609
						CHANNELS 3 Xrotation Yrotation Zrotation
						JOINT mixamorig:RightForeArm
						{
							OFFSET -0.558427 0.000000 0.000000
							CHANNELS 6 Xposition Yposition Zposition Xrotation Yrotation Zrotation
							JOINT mixamorig:RightHand
							{
								OFFSET -0.503137 0.000000 -0.000000
								CHANNELS 6 Xposition Yposition Zposition Xrotation Yrotation Zrotation
								End Site
								{
									OFFSET -0.503137 -0.000000 0.000000
								}
							}
						}
					}
				}
			}
		}
	}
	JOINT mixamorig:LeftUpLeg
	{
		OFFSET 0.185244 -0.026620 -0.138385
		CHANNELS 6 Xposition Yposition Zposition Xrotation Yrotation Zrotation
		JOINT mixamorig:LeftLeg
		{
			OFFSET -0.004065 0.015108 -0.852313
			CHANNELS 3 Xrotation Yrotation Zrotation
			JOINT mixamorig:LeftFoot
			{
				OFFSET 0.004508 0.051445 -0.854151
				CHANNELS 3 Xrotation Yrotation Zrotation
				JOINT mixamorig:LeftToeBase
				{
					OFFSET 0.026925 -0.242907 -0.213948
					CHANNELS 3 Xrotation Yrotation Zrotation
					End Site
					{
						OFFSET -0.005614 -0.324736 0.004268
					}
				}
			}
		}
	}
	JOINT mixamorig:RightUpLeg
	{
		OFFSET -0.184403 -0.001603 -0.144117
		CHANNELS 6 Xposition Yposition Zposition Xrotation Yrotation Zrotation
		JOINT mixamorig:RightLeg
		{
			OFFSET 0.005493 -0.010027 -0.848120
			CHANNELS 3 Xrotation Yrotation Zrotation
			JOINT mixamorig:RightFoot
			{
				OFFSET -0.005940 0.051576 -0.852616
				CHANNELS 3 Xrotation Yrotation Zrotation
				JOINT mixamorig:RightToeBase
				{
					OFFSET -0.031537 -0.248182 -0.214912
					CHANNELS 6 Xposition Yposition Zposition Xrotation Yrotation Zrotation
					End Site
					{
						OFFSET -0.045720 -0.326606 0.003764
					}
				}
			}
		}
	}
}
MOTION
Frames: 11
Frame Time: 0.033333
0.004255 0.032703 2.073045 -3.419591 3.529016 -5.231786 -0.001948 0.038898 0.198048 3.347923 -2.507603 1.531183 1.161017 -1.553459 0.336692 1.135828 -1.556188 0.361277 0.005730 -0.037617 0.310620 5.625804 -0.451443 -0.084485 0.010419 -0.065134 0.222310 -7.565219 0.084367 1.370466 0.129541 -0.026781 0.188949 4.792377 11.745000 -17.827593 46.758170 61.855170 -46.444248 0.551278 0.000000 -0.000000 0.000000 0.000001 -1.459357 -33.082393 6.184547 -1.374252 -0.126373 -0.021809 0.192154 5.180970 -14.170007 15.838232 50.516974 -49.307224 45.195276 -0.558427 0.000000 -0.000000 -0.000007 -0.000000 6.693738 -0.503137 0.000000 -0.000000 -20.240176 -6.782590 -0.517003 0.185244 -0.026620 -0.138385 -8.470001 -10.188622 14.876167 13.143445 -4.194718 2.009343 0.820006 7.474802 0.564566 -4.922193 0.000001 0.000001 -0.184403 -0.001603 -0.144116 0.852656 -3.540791 -10.363523 6.560109 3.229273 -9.789938 -3.342737 -2.981555 -1.622438 -0.031537 -0.248182 -0.214912 -7.282875 0.000015 0.000004 
0.004310 0.032854 2.073050 -3.418371 3.530927 -5.249298 -0.001948 0.038898 0.198048 3.347866 -2.508478 1.531198 1.144125 -1.553460 0.336690 1.118684 -1.556188 0.361279 0.005730 -0.037617 0.310620 5.625804 -0.451443 -0.084484 0.010419 -0.065134 0.222311 -7.504005 0.070849 1.370947 0.129541 -0.026781 0.188948 4.807036 11.759555 -17.879337 47.182131 61.325994 -46.711329 0.551278 0.000000 -0.000000 0.000001 0.000019 -1.740650 -33.448136 6.210964 -1.481294 -0.126373 -0.021809 0.192154 5.180410 -14.145078 15.844961 50.717785 -48.519652 45.432987 -0.558427 0.000000 -0.000000 0.000005 -0.000004 7.104293 -0.503137 0.000000 -0.000000 -20.642768 -6.918128 -0.736750 0.185244 -0.026620 -0.138386 -8.468018 -10.189272 14.876424 13.128657 -4.194713 2.029876 0.821883 7.487261 0.564370 -4.922198 0.000001 -0.000006 -0.184403 -0.001603 -0.144117 0.843315 -3.549857 -10.365031 6.557363 3.242671 -9.782730 -3.332248 -2.982971 -1.622988 -0.031537 -0.248182 -0.214912 -7.282893 0.000016 0.000018 
0.004399 0.033177 2.073037 -3.415308 3.533364 -5.300728 -0.001948 0.038898 0.198048 3.347845 -2.507847 1.529653 1.125624 -1.553460 0.333821 1.100061 -1.556188 0.360691 0.005730 -0.037617 0.310620 5.625806 -0.451442 -0.084483 0.010419 -0.065134 0.222311 -7.448284 0.063324 1.366632 0.129541 -0.026782 0.188948 4.815955 11.754610 -17.915972 47.766849 60.626986 -47.071765 0.551277 0.000000 -0.000000 -0.000006 -0.000001 -2.229695 -34.023266 6.373081 -1.727188 -0.126373 -0.021809 0.192154 5.188173 -14.076940 15.906375 50.497491 -47.845366 45.474983 -0.558427 0.000000 0.000000 0.000002 -0.000010 7.795353 -0.503137 0.000000 -0.000000 -21.244158 -7.237513 -0.944868 0.185244 -0.026620 -0.138385 -8.466978 -10.200160 14.876476 13.124009 -4.184159 2.081976 0.825103 7.499152 0.564379 -4.922203 0.000004 -0.000006 -0.184403 -0.001603 -0.144117 0.814036 -3.552379 -10.357992 6.578161 3.249922 -9.747720 -3.326700 -2.978990 -1.622744 -0.031537 -0.248182 -0.214912 -7.294055 0.000018 -0.000010 
0.004522 0.033713 2.073023 -3.410683 3.536273 -5.380666 -0.001948 0.038898 0.198048 3.347833 -2.505984 1.526236 1.106577 -1.544448 0.326935 1.080936 -1.546652 0.355519 0.005730 -0.037617 0.310620 5.625799 -0.455854 -0.084483 0.010419 -0.065134 0.222311 -7.405692 0.052284 1.346939 0.129541 -0.026781 0.188948 4.821826 11.744738 -17.948977 48.255730 59.841965 -47.319943 0.551277 0.000000 -0.000000 -0.000007 -0.000009 -2.999775 -34.701241 6.779023 -2.269039 -0.126373 -0.021809 0.192154 5.208387 -13.957212 16.034427 49.705640 -47.385117 45.275357 -0.558427 0.000000 0.000000 0.000006 0.000005 8.896671 -0.503137 0.000000 -0.000000 -21.956473 -7.632175 -0.948265 0.185244 -0.026620 -0.138386 -8.459144 -10.210300 14.871711 13.120052 -4.171879 2.163678 0.835916 7.502139 0.564574 -4.922204 0.000001 -0.000005 -0.184403 -0.001603 -0.144116 0.775966 -3.546252 -10.347188 6.608167 3.249092 -9.691034 -3.321722 -2.971511 -1.622008 -0.031537 -0.248182 -0.214912 -7.302086 0.000014 0.000002 
0.004646 0.034477 2.073010 -3.418684 3.540435 -5.473446 -0.001948 0.038898 0.198048 3.344777 -2.503329 1.522651 1.087755 -1.529379 0.319382 1.062045 -1.531541 0.348640 0.005730 -0.037617 0.310620 5.637859 -0.472865 -0.087645 0.010419 -0.065134 0.222310 -7.362174 0.025427 1.313759 0.129541 -0.026781 0.188949 4.827735 11.737948 -17.986132 48.406872 59.078193 -47.272340 0.551277 0.000000 -0.000000 0.000000 -0.000009 -4.112316 -35.459255 7.408509 -3.309498 -0.126373 -0.021809 0.192154 5.234903 -13.778506 16.211819 48.444343 -47.095469 45.045361 -0.558427 0.000000 -0.000000 0.000003 0.000015 10.265466 -0.503137 -0.000000 -0.000000 -22.517319 -7.843623 -0.675848 0.185244 -0.026620 -0.138385 -8.443368 -10.219548 14.862719 13.110972 -4.158228 2.256091 0.857996 7.508829 0.564849 -4.922205 0.000002 -0.000004 -0.184403 -0.001603 -0.144117 0.735038 -3.532995 -10.342739 6.647550 3.240269 -9.616721 -3.310910 -2.956879 -1.620161 -0.031537 -0.248182 -0.214912 -7.305845 0.000015 0.000010 
0.004725 0.035440 2.072992 -3.437362 3.549114 -5.570378 -0.001948 0.038898 0.198048 3.337827 -2.492249 1.518863 1.067697 -1.510293 0.311901 1.041927 -1.512818 0.340558 0.005730 -0.037617 0.310620 5.655315 -0.496295 -0.095372 0.010419 -0.065134 0.222310 -7.311753 -0.011359 1.282002 0.129541 -0.026781 0.188948 4.834245 11.734844 -18.017129 48.211618 58.361350 -46.979499 0.551278 0.000000 -0.000000 0.000000 0.000001 -5.503188 -36.424043 8.127974 -4.934442 -0.126373 -0.021809 0.192153 5.258094 -13.529253 16.402597 47.042945 -46.708361 45.158653 -0.558427 0.000000 -0.000000 0.000002 0.000018 11.626536 -0.503137 0.000000 -0.000000 -22.694314 -7.608862 -0.342355 0.185244 -0.026620 -0.138385 -8.418193 -10.237972 14.861778 13.094195 -4.143953 2.339741 0.894786 7.531940 0.564095 -4.921276 0.000000 -0.000003 -0.184403 -0.001603 -0.144116 0.698839 -3.529148 -10.334794 6.686143 3.234686 -9.546172 -3.294382 -2.937614 -1.617376 -0.031537 -0.248182 -0.214912 -7.313659 0.000016 0.000011 
0.004739 0.036552 2.072969 -3.465711 3.570727 -5.662962 -0.001948 0.038898 0.198048 3.328123 -2.480232 1.515198 1.041914 -1.488936 0.305390 1.016086 -1.492230 0.332446 0.005730 -0.037617 0.310621 5.680100 -0.518716 -0.103921 0.010419 -0.065134 0.222311 -7.238657 -0.044635 1.247728 0.129541 -0.026782 0.188949 4.838011 11.735558 -18.026799 47.894318 57.606731 -46.716383 0.551277 0.000000 -0.000000 -0.000005 -0.000003 -6.981326 -37.743468 8.854605 -6.977810 -0.126373 -0.021809 0.192154 5.271479 -13.184064 16.589049 45.709422 -45.808767 45.612372 -0.558427 0.000000 0.000000 -0.000009 0.000012 13.460235 -0.503137 0.000000 -0.000000 -22.528085 -6.899932 -0.297959 0.185244 -0.026620 -0.138385 -8.381254 -10.270859 14.869783 13.065506 -4.129348 2.412935 0.943157 7.561112 0.562563 -4.920157 0.000005 0.000002 -0.184403 -0.001603 -0.144116 0.682386 -3.544541 -10.317042 6.697980 3.232124 -9.488992 -3.260904 -2.914599 -1.613755 -0.031537 -0.248182 -0.214912 -7.328779 0.000016 -0.000000 
0.004688 0.037725 2.072953 -3.506697 3.597849 -5.733971 -0.001948 0.038898 0.198048 3.313274 -2.467254 1.511792 1.005417 -1.464507 0.298756 0.979494 -1.468546 0.324347 0.005730 -0.037617 0.310621 5.719008 -0.534717 -0.112686 0.010419 -0.065134 0.222310 -7.130562 -0.066084 1.200155 0.129541 -0.026781 0.188949 4.841093 11.744465 -18.027400 47.683330 56.661979 -46.659416 0.551278 0.000000 -0.000000 -0.000008 0.000010 -8.630827 -39.484005 9.543860 -9.023316 -0.126373 -0.021809 0.192155 5.276761 -12.709243 16.793967 44.288477 -44.234508 45.745079 -0.558427 0.000000 0.000000 0.000004 0.000010 17.340194 -0.503137 0.000000 -0.000000 -22.155559 -5.910184 -0.652097 0.185244 -0.026620 -0.138386 -8.329118 -10.305223 14.883481 13.018989 -4.120885 2.465501 0.998864 7.575916 0.561379 -4.918802 0.000002 -0.000005 -0.184403 -0.001603 -0.144117 0.689488 -3.569934 -10.299599 6.689887 3.230233 -9.447621 -3.219193 -2.889609 -1.609953 -0.031537 -0.248182 -0.214912 -7.341250 0.000019 0.000004 
0.004576 0.038900 2.072958 -3.564133 3.623981 -5.774393 -0.001948 0.038898 0.198048 3.293151 -2.452411 1.508767 0.957754 -1.434254 0.291580 0.931617 -1.438776 0.315427 0.005730 -0.037617 0.310620 5.773434 -0.546418 -0.125937 0.010419 -0.065134 0.222311 -6.989246 -0.076874 1.132992 0.129541 -0.026781 0.188948 4.845116 11.753217 -18.038743 47.623327 55.358270 -46.598286 0.551278 0.000000 -0.000000 0.000001 -0.000015 -11.279392 -41.726613 9.955802 -10.558282 -0.126373 -0.021809 0.192154 5.281621 -12.077172 17.069119 42.436122 -42.523880 44.946535 -0.558427 0.000000 -0.000000 -0.000009 0.000012 24.348945 -0.503137 -0.000000 -0.000000 -21.395926 -4.755492 -1.192690 0.185244 -0.026620 -0.138385 -8.258754 -10.330712 14.894749 12.953267 -4.118251 2.495930 1.061430 7.571906 0.560019 -4.916700 -0.000003 -0.000005 -0.184403 -0.001603 -0.144117 0.726728 -3.598055 -10.290597 6.660967 3.229286 -9.419126 -3.172092 -2.864445 -1.606300 -0.031537 -0.248182 -0.214912 -7.343978 0.000015 0.000013 
0.004395 0.040042 2.072982 -3.638250 3.652229 -5.794891 -0.001948 0.038898 0.198048 3.270733 -2.433960 1.505291 0.904654 -1.395618 0.283761 0.878321 -1.400464 0.307639 0.005730 -0.037617 0.310621 5.829803 -0.566625 -0.144590 0.010419 -0.065135 0.222311 -6.836918 -0.081590 1.044815 0.129541 -0.026782 0.188949 4.846244 11.754680 -18.050686 47.549185 53.729079 -46.127228 0.551278 0.000000 -0.000000 -0.000012 -0.000014 -15.887546 -44.505485 9.708355 -11.341321 -0.126373 -0.021809 0.192154 5.292410 -11.278660 17.460513 40.040007 -41.498399 43.529728 -0.558427 0.000000 -0.000000 0.000008 -0.000005 33.445732 -0.503137 0.000000 -0.000000 -19.737563 -3.348499 -1.767654 0.185244 -0.026620 -0.138385 -8.173559 -10.354717 14.907322 12.883202 -4.118430 2.508961 1.127879 7.567082 0.557931 -4.913372 -0.000000 -0.000005 -0.184403 -0.001603 -0.144117 0.796344 -3.633042 -10.282920 6.608554 3.229543 -9.402876 -3.118430 -2.837934 -1.602813 -0.031537 -0.248182 -0.214912 -7.342920 0.000013 0.000002 
0.004139 0.041103 2.073003 -3.724724 3.686014 -5.810538 -0.001948 0.038898 0.198048 3.249620 -2.409810 1.503693 0.853336 -1.345690 0.282842 0.826837 -1.350727 0.307843 0.005730 -0.037617 0.310621 5.865997 -0.605870 -0.170968 0.010419 -0.065134 0.222310 -6.703854 -0.097607 0.926504 0.129541 -0.026781 0.188949 4.837752 11.748003 -18.018309 47.216650 52.223012 -45.204012 0.551278 0.000000 -0.000001 -0.000017 0.000001 -22.108277 -47.526287 8.794750 -11.710598 -0.126373 -0.021809 0.192154 5.307493 -10.321797 17.975548 37.424922 -41.293824 42.418501 -0.558427 0.000000 0.000000 -0.000007 0.000005 42.537520 -0.503137 0.000000 0.000000 -16.892642 -1.733548 -2.569801 0.185244 -0.026620 -0.138385 -8.078564 -10.387664 14.927645 12.822675 -4.121025 2.510414 1.193535 7.569832 0.553886 -4.907149 -0.000002 -0.000007 -0.184403 -0.001603 -0.144117 0.883107 -3.677196 -10.274404 6.557727 3.231369 -9.393557 -3.082380 -2.810434 -1.600178 -0.031537 -0.248182 -0.214912 -7.338749 0.000014 0.000020 
